<svg width="31" height="29" viewBox="0 0 31 29" fill="none" xmlns="http://www.w3.org/2000/svg"><path fill-rule="evenodd" clip-rule="evenodd" d="M15.5 0c4.694 0 8.43 3.867 8.5 8.636C24.097 15.514 15.803 24 15.5 24 15.172 24 7 14.811 7 8.636 7 3.866 10.805 0 15.5 0zm0 3.022c2.51 0 4.546 2.068 4.546 4.619 0 2.551-2.035 4.62-4.546 4.62-2.51 0-4.546-2.07-4.546-4.62 0-2.551 2.035-4.62 4.546-4.62z" fill="#858585"/><path d="M9 20.5c-3 .167-8.9 1.2-8.5 4 .4 2.8 10.167 3.5 15 3.5C21 28 30 26.9 30 24.5s-6-3.667-9-4" stroke="#858585" stroke-width=".5"/></svg>