<svg width="10" height="13" viewBox="0 0 10 13" fill="none" xmlns="http://www.w3.org/2000/svg"><path fill-rule="evenodd" clip-rule="evenodd" d="M.024 0h5.68c1.87 0 3.46.952 3.459 2.876C9.16 4.483 8.6 5.108 7.45 5.815c.099.084.758.288.979.401a2.7 2.7 0 0 1 .796.612c.652.69.774 1.32.774 2.401C10 11.74 7.665 13 5.416 13H0L.024 0zm3.087 3.415v1.689c1.462 0 2.837.2 2.837-1.449 0-1.526-1.555-1.275-2.839-1.275l.002 1.035zm-.001 7.192c1.603 0 3.583.275 3.618-1.617.037-1.973-2.034-1.617-3.617-1.617l-.001 3.234z" fill="#858585"/></svg>