<svg width="28" height="29" viewBox="0 0 28 29" fill="none" xmlns="http://www.w3.org/2000/svg"><path d="M21.642 15.376V2.336H2.319v24.328h8.888a1.168 1.168 0 0 1 0 2.336H1.16C.522 29 0 28.474 0 27.832V1.168C0 .525.522 0 1.16 0H22.8c.638 0 1.16.525 1.16 1.168v14.208c0 .642-.522 1.168-1.16 1.168a1.167 1.167 0 0 1-1.158-1.168zm5.97 2.841a1.156 1.156 0 0 0-1.642.098l-6.358 7.123-3.188-3.095a1.155 1.155 0 0 0-1.642.04 1.175 1.175 0 0 0 .039 1.654l4.057 3.931c.213.214.503.331.812.331h.038c.31-.02.619-.155.812-.389l7.15-8.019c.444-.506.405-1.245-.078-1.674zM17.391 6.812H6.956a1.168 1.168 0 0 0 0 2.336h10.435a1.167 1.167 0 0 0-.001-2.336zm1.159 7.59c0-.642-.522-1.167-1.16-1.167H6.957a1.168 1.168 0 0 0 0 2.335h10.435c.637 0 1.159-.525 1.159-1.168zm-11.594 5.06a1.169 1.169 0 0 0 0 2.336h3.092a1.167 1.167 0 1 0 0-2.335H6.956z" fill="#A1A1A1"/></svg>