<svg width="15" height="15" viewBox="0 0 15 15" fill="none" xmlns="http://www.w3.org/2000/svg"><path fill-rule="evenodd" clip-rule="evenodd" d="M14.15 13.355c-.253.386-.792.897-1.312 1.14-.52.244-1.022.22-1.48.139-.457-.08-.87-.216-1.952-.91-1.081-.696-2.83-1.951-4.326-3.57-1.496-1.62-2.74-3.604-3.468-4.849-.73-1.244-.945-1.75-1.008-2.26a2.222 2.222 0 0 1 .373-1.547C1.32.975 1.918.444 2.472.318c.553-.124 1.062.156 1.523.54.46.385.872.874 1.132 1.364.26.49.367.983.236 1.348-.132.365-.504.603-.753.753-.249.15-.376.21-.465.28-.089.07-.14.147-.1.315.039.168.168.426.514 1.087.346.66.909 1.721 1.697 2.648.788.926 1.802 1.717 2.408 2.074.605.357.803.281 1.013.034.21-.247.43-.666.692-.876.261-.211.562-.214.85-.156.287.058.561.177.886.374.325.196.7.47 1.052.797a7.3 7.3 0 0 1 .873.974c.193.267.251.42.297.627.045.207.077.468-.177.854z" fill="#858585"/></svg>