<svg width="42" height="42" viewBox="0 0 42 42" fill="none" xmlns="http://www.w3.org/2000/svg"><path d="M31.532 27.419c-1.322-1.316-2.972-1.316-4.286 0a250.583 250.583 0 0 0-2.989 3.023c-.27.28-.497.34-.825.153-.649-.357-1.34-.645-1.962-1.036-2.906-1.843-5.34-4.212-7.495-6.88-1.069-1.324-2.02-2.743-2.686-4.34-.134-.322-.11-.534.152-.798 1.002-.977 1.979-1.979 2.964-2.98 1.372-1.394 1.372-3.024-.009-4.426-.783-.798-1.566-1.58-2.349-2.377-.808-.816-1.608-1.64-2.425-2.447C8.3 4.012 6.649 4.012 5.336 5.32c-1.01 1.002-1.98 2.03-3.006 3.015-.952.909-1.432 2.021-1.533 3.32-.16 2.116.354 4.111 1.078 6.056 1.482 4.026 3.739 7.601 6.475 10.88 3.697 4.433 8.11 7.94 13.271 10.472 2.324 1.138 4.733 2.013 7.351 2.157 1.802.102 3.368-.357 4.623-1.775.86-.968 1.828-1.852 2.737-2.777 1.347-1.376 1.356-3.04.017-4.4-1.6-1.622-3.208-3.236-4.817-4.85zm-1.608-6.769l3.107-.536a14.048 14.048 0 0 0-3.882-7.559 13.77 13.77 0 0 0-7.915-3.983l-.438 3.151a10.686 10.686 0 0 1 6.13 3.083 10.842 10.842 0 0 1 2.998 5.843zm4.858-13.623C31.195 3.41 26.656 1.125 21.646.42l-.438 3.15c4.328.612 8.252 2.591 11.351 5.708a20.08 20.08 0 0 1 5.566 10.829l3.107-.535a23.346 23.346 0 0 0-6.45-12.545z" fill="#fff"/></svg>