<svg width="11" height="19" viewBox="0 0 11 19" fill="none" xmlns="http://www.w3.org/2000/svg"><path fill-rule="evenodd" clip-rule="evenodd" d="M10.835 10.204c-.261-.545-.985-.999-1.947-.212-1.3 1.065-3.388 1.065-3.388 1.065s-2.088 0-3.388-1.065C1.15 9.205.426 9.66.165 10.204c-.456.951.059 1.41 1.22 2.185.993.662 2.356.91 3.236 1.002l-.735.763-2.727 2.834a1.133 1.133 0 0 0 0 1.56l.125.13c.207.214.478.322.749.322h.003c.271 0 .542-.108.749-.323l2.727-2.834 2.728 2.834c.414.43 1.086.43 1.5 0l.126-.13a1.133 1.133 0 0 0 0-1.56l-2.728-2.833-.737-.766c.881-.094 2.23-.342 3.213-.999 1.162-.774 1.677-1.234 1.221-2.185zM5.5 2.443c1.258 0 2.277 1.06 2.277 2.366S6.757 7.174 5.5 7.174c-1.258 0-2.277-1.059-2.277-2.365 0-1.307 1.02-2.366 2.277-2.366zm0 7.174c2.556 0 4.628-2.153 4.628-4.808C10.128 2.153 8.056 0 5.5 0S.872 2.153.872 4.809c0 2.655 2.072 4.808 4.628 4.808z" fill="#858585"/></svg>