<svg width="17" height="14" viewBox="0 0 17 14" fill="none" xmlns="http://www.w3.org/2000/svg"><path d="M17 1.657a6.902 6.902 0 0 1-2.003.557A3.537 3.537 0 0 0 16.53.258c-.674.405-1.42.7-2.215.858A3.461 3.461 0 0 0 11.77 0C9.844 0 8.282 1.582 8.282 3.534c0 .277.03.547.09.806C5.474 4.192 2.904 2.785 1.183.647a3.556 3.556 0 0 0-.472 1.777c0 1.226.616 2.308 1.552 2.941a3.44 3.44 0 0 1-1.58-.442v.045c0 1.712 1.202 3.14 2.798 3.466a3.45 3.45 0 0 1-1.576.06c.444 1.404 1.732 2.426 3.259 2.454A6.94 6.94 0 0 1 0 12.412 9.777 9.777 0 0 0 5.346 14c6.416 0 9.924-5.386 9.924-10.056 0-.153-.003-.306-.01-.457A7.142 7.142 0 0 0 17 1.657z" fill="#858585"/></svg>