<svg width="31" height="29" viewBox="0 0 31 29" fill="none" xmlns="http://www.w3.org/2000/svg">
<path fill-rule="evenodd" clip-rule="evenodd" d="M8.49956 0C13.1938 0 16.9306 3.86696 16.9991 8.63594C17.0979 15.5143 8.80433 24 8.49956 24C8.17186 24.0001 0 14.8114 0 8.63594C0 3.86648 3.80537 0 8.49956 0ZM8.49994 3.02151C11.0107 3.02151 13.0462 5.08958 13.0462 7.64079C13.0462 10.192 11.0107 12.2601 8.49994 12.2601C5.98914 12.2601 3.95375 10.1919 3.95375 7.6407C3.95375 5.08958 5.98914 3.02151 8.49994 3.02151Z" transform="translate(7)" fill="#858585"/>
<path d="M8.51935 0C5.51935 0.166667 -0.380647 1.2 0.0193527 4C0.419353 6.8 10.1861 7.5 15.0194 7.5C20.5194 7.5 29.5194 6.4 29.5194 4C29.5194 1.6 23.5194 0.333333 20.5194 0" transform="translate(0.480469 20.5)" stroke="#858585" stroke-width="0.5"/>
</svg>
