<svg width="28" height="29" viewBox="0 0 28 29" fill="none" xmlns="http://www.w3.org/2000/svg">
<path d="M21.6417 15.3757V2.33546H2.31871V26.6645H11.2071C11.845 26.6645 12.3666 27.1899 12.3666 27.832C12.3666 28.4742 11.845 29 11.2071 29H1.15948C0.521633 29 0 28.4742 0 27.832V1.1679C0 0.525419 0.521633 0 1.15948 0H22.8008C23.4384 0 23.9601 0.525419 23.9601 1.1679V15.3757C23.9601 16.0178 23.4384 16.5436 22.8008 16.5436C22.163 16.5436 21.6417 16.0178 21.6417 15.3757ZM27.6121 18.2173C27.1293 17.7891 26.395 17.8279 25.9698 18.3145L19.6124 25.4381L16.4244 22.3434C15.9607 21.8959 15.2263 21.9151 14.7818 22.3825C14.3376 22.8495 14.3566 23.5893 14.8207 24.0367L18.8784 27.9684C19.0908 28.1824 19.3807 28.2991 19.6898 28.2991H19.7284C20.0376 28.2799 20.3468 28.1435 20.5401 27.91L27.6895 19.8911C28.134 19.3849 28.0952 18.6456 27.6121 18.2173ZM17.3906 6.81208H6.95638C6.31853 6.81208 5.7969 7.3375 5.7969 7.97973C5.7969 8.6222 6.31853 9.14762 6.95638 9.14762H17.3906C18.0281 9.14762 18.5498 8.6222 18.5498 7.97973C18.5498 7.3375 18.0281 6.81208 17.3906 6.81208ZM18.5498 14.4025C18.5498 13.7603 18.0281 13.2348 17.3906 13.2348H6.95638C6.31853 13.2348 5.7969 13.7603 5.7969 14.4025C5.7969 15.045 6.31853 15.5704 6.95638 15.5704H17.3906C18.0281 15.5704 18.5498 15.045 18.5498 14.4025ZM6.95638 19.4629C6.31853 19.4629 5.7969 19.9883 5.7969 20.6308C5.7969 21.273 6.31853 21.7984 6.95638 21.7984H10.048C10.6855 21.7984 11.2071 21.273 11.2071 20.6308C11.2071 19.9883 10.6855 19.4629 10.048 19.4629H6.95638Z" fill="#A1A1A1"/>
</svg>
