<svg width="11" height="19" viewBox="0 0 11 19" fill="none" xmlns="http://www.w3.org/2000/svg">
<path fill-rule="evenodd" clip-rule="evenodd" d="M10.8352 10.2042C10.5739 9.65883 9.8501 9.20508 8.88825 9.99244C7.58825 11.0568 5.50005 11.0568 5.50005 11.0568C5.50005 11.0568 3.41179 11.0568 2.11178 9.99244C1.14993 9.20508 0.42618 9.65883 0.164893 10.2042C-0.290707 11.155 0.224015 11.6146 1.38555 12.3893C2.37764 13.051 3.74085 13.2982 4.62113 13.3906L3.88637 14.1541C2.85124 15.2294 1.85216 16.2676 1.15896 16.9878C0.744487 17.4183 0.744487 18.1165 1.15896 18.5472L1.28401 18.6771C1.49075 18.8919 1.7615 18.9995 2.0325 19H2.03639C2.30733 18.9995 2.5782 18.8919 2.78488 18.6771L5.51229 15.8434C6.54736 16.9187 7.54644 17.9568 8.2397 18.6771C8.65411 19.1076 9.3261 19.1076 9.74052 18.6771L9.86556 18.5471C10.2801 18.1165 10.28 17.4183 9.86556 16.9878L7.13815 14.154L6.40104 13.3882C7.28206 13.294 8.63068 13.0455 9.61448 12.3893C10.776 11.6146 11.2906 11.155 10.8352 10.2042ZM5.49999 2.44292C6.75757 2.44292 7.77705 3.5022 7.77705 4.80873C7.77705 6.11532 6.75757 7.17447 5.49999 7.17447C4.2424 7.17447 3.22292 6.11532 3.22292 4.80873C3.22298 3.50213 4.2424 2.44292 5.49999 2.44292ZM5.49999 9.61739C8.05615 9.61739 10.1284 7.46445 10.1284 4.80866C10.1284 2.153 8.05615 0 5.49999 0C2.94382 0 0.871637 2.153 0.871637 4.80866C0.871637 7.46445 2.94376 9.61739 5.49999 9.61739Z" fill="#858585"/>
</svg>
