<svg width="42" height="42" viewBox="0 0 42 42" fill="none" xmlns="http://www.w3.org/2000/svg">
<path d="M30.7646 23.0809C29.4427 21.7647 27.7923 21.7647 26.4787 23.0809C25.4766 24.0833 24.4747 25.0851 23.4895 26.1045C23.2198 26.3848 22.9924 26.4441 22.6642 26.2571C22.0158 25.9005 21.3251 25.6118 20.7022 25.2211C17.7969 23.3783 15.3632 21.0087 13.2079 18.3417C12.1385 17.0168 11.1866 15.5985 10.5214 14.002C10.387 13.6793 10.412 13.467 10.6731 13.2036C11.6751 12.2266 12.652 11.2246 13.6372 10.2223C15.0097 8.82938 15.0097 7.19883 13.6289 5.79748C12.8457 4.99924 12.0625 4.21788 11.2796 3.41964C10.4712 2.60431 9.67111 1.78027 8.8541 0.97333C7.53228 -0.325891 5.88184 -0.325891 4.56811 0.982036C3.55753 1.98432 2.58927 3.01198 1.56216 3.99685C0.610318 4.90592 0.130448 6.01851 0.0292952 7.31784C-0.130591 9.43281 0.382961 11.4283 1.10745 13.3733C2.58927 17.3992 4.8461 20.9746 7.5828 24.2528C11.2796 28.6864 15.6918 32.1939 20.8535 34.7248C23.1778 35.8628 25.586 36.7378 28.2047 36.8821C30.0068 36.9841 31.5729 36.5255 32.8278 35.1071C33.6867 34.1388 34.655 33.2556 35.5645 32.3299C36.9119 30.9539 36.9201 29.2894 35.5814 27.9304C33.9815 26.3081 32.3731 24.6945 30.7646 23.0809Z" transform="translate(0.767578 4.33789)" fill="white"/>
<path d="M9.12827 12.0768L12.2355 11.5418C11.747 8.66257 10.3996 6.05542 8.35326 3.98312C6.18926 1.80063 3.45256 0.424652 0.437977 2.65666e-07L-1.28488e-08 3.15081C2.33262 3.48214 4.45461 4.54377 6.13053 6.23367C7.7135 7.83026 8.74913 9.85191 9.12827 12.0768Z" transform="translate(20.7959 8.57227)" fill="white"/>
<path d="M13.5741 6.60736C9.98675 2.98955 5.44793 0.704921 0.437872 0L-3.21221e-07 3.15081C4.3283 3.76252 8.2521 5.74108 11.351 8.85834C14.2896 11.8222 16.2179 15.5677 16.9169 19.6869L20.0241 19.1516C19.2075 14.3788 16.9761 10.0473 13.5741 6.60736Z" transform="translate(21.208 0.419922)" fill="white"/>
</svg>
