<svg width="15" height="15" viewBox="0 0 15 15" fill="none" xmlns="http://www.w3.org/2000/svg">
<path fill-rule="evenodd" clip-rule="evenodd" d="M11.1564 0.12146C11.577 0.312017 12.1661 0.765325 12.4871 1.24172C12.8081 1.71811 12.8611 2.21753 12.8528 2.68194C12.8445 3.14629 12.7747 3.57568 12.2553 4.75137C11.7358 5.92712 10.7666 7.84928 9.39824 9.57806C8.02983 11.3069 6.2623 12.8423 5.14571 13.7555C4.02917 14.6688 3.56355 14.9599 3.06939 15.1004C2.57518 15.241 2.05242 15.2311 1.48255 14.9721C0.912685 14.713 0.295766 14.2051 0.0864843 13.6778C-0.122797 13.1505 0.0756133 12.604 0.384073 12.0896C0.692588 11.5751 1.11115 11.0926 1.55547 10.76C1.99979 10.4274 2.46981 10.2447 2.85102 10.3184C3.23218 10.392 3.52458 10.7221 3.71089 10.9451C3.89721 11.168 3.9776 11.2839 4.05999 11.361C4.14239 11.4381 4.22685 11.4764 4.38674 11.4118C4.54657 11.3472 4.78183 11.1795 5.38041 10.7355C5.97893 10.2914 6.94077 9.57084 7.7338 8.64863C8.52683 7.72637 9.15105 6.60245 9.41023 5.94876C9.66946 5.29508 9.56371 5.11157 9.28691 4.94282C9.01017 4.77401 8.56234 4.61991 8.31376 4.39451C8.06517 4.1691 8.01578 3.8725 8.02866 3.5794C8.04148 3.28635 8.11652 2.99685 8.26035 2.64542C8.40424 2.294 8.61686 1.8807 8.88557 1.4826C9.15428 1.08445 9.47902 0.70151 9.71267 0.469445C9.94631 0.237381 10.0889 0.156253 10.2862 0.0795637C10.4837 0.00298581 10.7358 -0.0691528 11.1564 0.12146Z" transform="translate(15.998 2.35156) rotate(98.9085)" fill="#858585"/>
</svg>
