<svg width="17" height="14" viewBox="0 0 17 14" fill="none" xmlns="http://www.w3.org/2000/svg">
<path d="M17 1.65728C16.3745 1.93838 15.7023 2.12838 14.9968 2.21383C15.7168 1.77639 16.2699 1.08378 16.5303 0.258421C15.8564 0.663498 15.1099 0.957592 14.3154 1.11608C13.6793 0.429185 12.7729 0 11.7698 0C9.84363 0 8.28198 1.58243 8.28198 3.53426C8.28198 3.81126 8.31283 4.08106 8.37227 4.33974C5.47359 4.1923 2.90361 2.78525 1.18345 0.646864C0.883164 1.16884 0.711187 1.776 0.711187 2.42371C0.711187 3.64992 1.32689 4.73169 2.26283 5.36549C1.69105 5.3471 1.15331 5.1881 0.683101 4.92344C0.68278 4.93819 0.68278 4.95294 0.68278 4.96789C0.68278 6.68034 1.88508 8.10863 3.48059 8.43353C3.18793 8.5143 2.87982 8.55751 2.56171 8.55751C2.33696 8.55751 2.11849 8.53528 1.90548 8.49409C2.34933 9.89815 3.63737 10.92 5.16362 10.9484C3.96998 11.8964 2.4661 12.4615 0.831994 12.4615C0.550495 12.4615 0.272907 12.4447 0 12.412C1.5435 13.4149 3.37684 14 5.3465 14C11.7617 14 15.27 8.61449 15.27 3.94402C15.27 3.7908 15.2666 3.63836 15.2598 3.48676C15.9411 2.9885 16.5324 2.36601 17 1.65728Z" fill="#858585"/>
</svg>
