<svg width="10" height="13" viewBox="0 0 10 13" fill="none" xmlns="http://www.w3.org/2000/svg">
<path fill-rule="evenodd" clip-rule="evenodd" d="M0.0240468 0H5.70416C7.57318 0 9.16424 0.951586 9.16257 2.87598C9.16107 4.48277 8.60137 5.10777 7.45133 5.81452C7.54965 5.89873 8.20866 6.10305 8.42992 6.21639C8.78428 6.39793 8.99275 6.58139 9.22589 6.82772C9.87838 7.51722 10 8.14755 10 9.22908C10 11.7384 7.66475 13 5.41589 13H0L0.0240468 0ZM3.11063 3.41539L3.11022 5.10358C4.57327 5.10358 5.94803 5.30388 5.94803 3.65513C5.94803 2.12871 4.39278 2.38019 3.10918 2.38019L3.11063 3.41539ZM3.10976 10.607C4.71282 10.607 6.69337 10.8815 6.7282 8.98982C6.76453 7.01658 4.69368 7.37271 3.11068 7.37271L3.10976 10.607Z" fill="#858585"/>
</svg>
